<?xml version="1.0"?>
<svg xmlns="http://www.w3.org/2000/svg" xmlns:xlink="http://www.w3.org/1999/xlink" version="1.1" xml:space="preserve">
  <defs>
    <symbol id="email" width="100%" height="100%" viewBox="0 0 56 56" fill="none">
      <path d="M4.66675 28.0002C4.66675 19.2006 4.66675 14.8008 7.40042 12.0672C10.1341 9.3335 14.5339 9.3335 23.3334 9.3335H32.6667C41.4663 9.3335 45.8661 9.3335 48.5997 12.0672C51.3334 14.8008 51.3334 19.2006 51.3334 28.0002C51.3334 36.7997 51.3334 41.1995 48.5997 43.9332C45.8661 46.6668 41.4663 46.6668 32.6667 46.6668H23.3334C14.5339 46.6668 10.1341 46.6668 7.40042 43.9332C4.66675 41.1995 4.66675 36.7997 4.66675 28.0002Z" stroke="currentColor" stroke-width="2" />
      <path d="M14 18.6665L19.0374 22.8644C23.3229 26.4356 25.4657 28.2212 28 28.2212C30.5343 28.2212 32.6771 26.4356 36.9626 22.8644L42 18.6665" stroke="currentColor" stroke-width="2" stroke-linecap="round" />

    </symbol>
    <symbol id="phone" width="100%" height="100%" viewBox="0 0 56 56" fill="none">
      <path d="M31.5001 4.66699C31.5001 4.66699 36.9448 5.16197 43.8745 12.0916C50.8041 19.0213 51.2991 24.466 51.2991 24.466" stroke="currentColor" stroke-width="2" stroke-linecap="round" />
      <path d="M33.1498 12.9165C33.1498 12.9165 35.4597 13.5765 38.9245 17.0413C42.3893 20.5061 43.0493 22.816 43.0493 22.816" stroke="currentColor" stroke-width="2" stroke-linecap="round" />
      <path d="M35.235 35.0635L34.5099 34.3748L35.235 35.0635ZM36.2977 33.9446L37.0228 34.6333L36.2977 33.9446ZM41.9366 33.1621L41.4377 34.0288L41.9366 33.1621ZM46.3944 35.728L45.8956 36.5946L46.3944 35.728ZM47.6506 43.7697L48.3756 44.4584L47.6506 43.7697ZM44.336 47.2593L43.6109 46.5707L44.336 47.2593ZM41.2446 48.9139L41.3429 49.9091L41.2446 48.9139ZM18.2358 38.4421L18.9609 37.7534L18.2358 38.4421ZM7.00674 16.2539L6.00817 16.3074L6.00818 16.3074L7.00674 16.2539ZM22.1142 19.8406L22.8393 20.5293L22.1142 19.8406ZM22.4799 13.2839L23.2964 12.7066L22.4799 13.2839ZM19.5376 9.12244L18.7211 9.69975V9.69975L19.5376 9.12244ZM12.2767 8.42016L13.0018 9.10885L12.2767 8.42016ZM8.61431 12.276L7.88926 11.5873L7.88926 11.5873L8.61431 12.276ZM25.8139 30.4638L26.539 29.7751L25.8139 30.4638ZM35.9601 35.7522L37.0228 34.6333L35.5727 33.256L34.5099 34.3748L35.9601 35.7522ZM41.4377 34.0288L45.8956 36.5946L46.8933 34.8613L42.4354 32.2954L41.4377 34.0288ZM46.9255 43.081L43.6109 46.5707L45.061 47.948L48.3756 44.4584L46.9255 43.081ZM41.1464 47.9187C37.6036 48.2684 28.6266 47.9296 18.9609 37.7534L17.5108 39.1308C27.6634 49.8196 37.2816 50.3099 41.3429 49.9091L41.1464 47.9187ZM18.9609 37.7534C9.78809 28.0962 8.2035 19.8929 8.0053 16.2003L6.00818 16.3074C6.23066 20.4526 7.99525 29.1127 17.5108 39.1308L18.9609 37.7534ZM22.17 21.2339L22.8393 20.5293L21.3892 19.1519L20.7199 19.8565L22.17 21.2339ZM23.2964 12.7066L20.3541 8.54512L18.7211 9.69975L21.6634 13.8612L23.2964 12.7066ZM11.5517 7.73148L7.88926 11.5873L9.33937 12.9647L13.0018 9.10885L11.5517 7.73148ZM21.445 20.5452C20.7199 19.8565 20.719 19.8575 20.7181 19.8585C20.7177 19.8588 20.7168 19.8598 20.7161 19.8605C20.7148 19.8619 20.7135 19.8633 20.7121 19.8648C20.7094 19.8678 20.7065 19.8709 20.7034 19.8743C20.6973 19.881 20.6906 19.8885 20.6834 19.8968C20.669 19.9134 20.6524 19.9332 20.6341 19.9562C20.5976 20.0024 20.5543 20.0617 20.5076 20.1346C20.414 20.2809 20.3076 20.4811 20.2159 20.7389C20.0303 21.2604 19.9163 21.9849 20.0544 22.9273C20.3274 24.7906 21.5749 27.4529 25.0889 31.1525L26.539 29.7751C23.158 26.2155 22.221 23.9185 22.0333 22.6373C21.941 22.0074 22.0276 21.6133 22.1001 21.4094C22.1375 21.3044 22.1746 21.2402 22.1922 21.2126C22.2011 21.1987 22.2053 21.1938 22.2024 21.1974C22.201 21.1992 22.1978 21.2032 22.1925 21.2093C22.1898 21.2123 22.1867 21.2159 22.1829 21.22C22.1811 21.222 22.1791 21.2242 22.1769 21.2265C22.1758 21.2277 22.1747 21.2289 22.1736 21.2301C22.173 21.2307 22.1721 21.2317 22.1718 21.232C22.1709 21.2329 22.17 21.2339 21.445 20.5452ZM25.0889 31.1525C28.5969 34.8457 31.1398 36.1789 32.9498 36.4729C33.8702 36.6223 34.5838 36.4992 35.0995 36.2958C35.3532 36.1958 35.5493 36.0801 35.6915 35.9792C35.7625 35.9289 35.8199 35.8823 35.8644 35.8433C35.8866 35.8238 35.9057 35.8062 35.9216 35.7908C35.9295 35.7832 35.9367 35.7761 35.9431 35.7696C35.9463 35.7664 35.9493 35.7633 35.9522 35.7604C35.9536 35.7589 35.9549 35.7575 35.9563 35.7561C35.9569 35.7555 35.9579 35.7545 35.9582 35.7541C35.9591 35.7531 35.9601 35.7522 35.235 35.0635C34.5099 34.3748 34.5109 34.3738 34.5118 34.3729C34.512 34.3726 34.5129 34.3716 34.5135 34.371C34.5147 34.3698 34.5158 34.3687 34.5169 34.3675C34.5191 34.3653 34.5212 34.3631 34.5232 34.3611C34.5271 34.3572 34.5305 34.3538 34.5335 34.3509C34.5394 34.3452 34.5434 34.3416 34.5455 34.3398C34.5496 34.3362 34.546 34.3397 34.5345 34.3479C34.5116 34.3641 34.4565 34.3995 34.3657 34.4353C34.1922 34.5037 33.8434 34.5918 33.2704 34.4987C32.0937 34.3076 29.926 33.341 26.539 29.7751L25.0889 31.1525ZM20.3541 8.54512C18.2397 5.55457 14.0611 5.08953 11.5517 7.73148L13.0018 9.10885C14.5734 7.45423 17.275 7.65443 18.7211 9.69975L20.3541 8.54512ZM8.0053 16.2003C7.94149 15.0114 8.4639 13.8864 9.33937 12.9647L7.88926 11.5873C6.74117 12.796 5.90755 14.4327 6.00817 16.3074L8.0053 16.2003ZM43.6109 46.5707C42.8776 47.3426 42.0401 47.8305 41.1464 47.9187L41.3429 49.9091C42.8543 49.7599 44.1087 48.9507 45.061 47.948L43.6109 46.5707ZM22.8393 20.5293C24.8359 18.4272 24.9938 15.1073 23.2964 12.7066L21.6634 13.8612C22.8427 15.5292 22.6898 17.7826 21.3892 19.1519L22.8393 20.5293ZM45.8956 36.5946C48.2169 37.9308 48.7015 41.2113 46.9255 43.081L48.3756 44.4584C51.0745 41.617 50.2974 36.8206 46.8933 34.8613L45.8956 36.5946ZM37.0228 34.6333C38.1663 33.4294 39.9486 33.1716 41.4377 34.0288L42.4354 32.2954C40.1652 30.9887 37.3673 31.3665 35.5727 33.256L37.0228 34.6333Z" fill="currentColor" />

    </symbol>
    <symbol id="menu" width="100%" height="100%" viewBox="0 0 20 18">
      <path fill-rule="evenodd" clip-rule="evenodd" d="M0.199951 2.0001C0.199951 1.2269 0.826752 0.600098 1.59995 0.600098H18.4C19.1732 0.600098 19.8 1.2269 19.8 2.0001C19.8 2.7733 19.1732 3.4001 18.4 3.4001H1.59995C0.826752 3.4001 0.199951 2.7733 0.199951 2.0001Z" fill="currentColor" />
      <path fill-rule="evenodd" clip-rule="evenodd" d="M0.199951 9.0001C0.199951 8.2269 0.826752 7.6001 1.59995 7.6001H18.4C19.1732 7.6001 19.8 8.2269 19.8 9.0001C19.8 9.7733 19.1732 10.4001 18.4 10.4001H1.59995C0.826752 10.4001 0.199951 9.7733 0.199951 9.0001Z" fill="currentColor" />
      <path fill-rule="evenodd" clip-rule="evenodd" d="M0.199951 16.0001C0.199951 15.2269 0.826752 14.6001 1.59995 14.6001H18.4C19.1732 14.6001 19.8 15.2269 19.8 16.0001C19.8 16.7733 19.1732 17.4001 18.4 17.4001H1.59995C0.826752 17.4001 0.199951 16.7733 0.199951 16.0001Z" fill="currentColor" />
    </symbol>
    <symbol id="arrow-right" width="100%" height="100%" viewBox="0 0 20 20">
      <path fill-rule="evenodd" clip-rule="evenodd" d="M11.2248 4.55806C11.4688 4.31398 11.8646 4.31398 12.1086 4.55806L17.1086 9.55806C17.3527 9.80214 17.3527 10.1979 17.1086 10.4419L12.1086 15.4419C11.8646 15.686 11.4688 15.686 11.2248 15.4419C10.9807 15.1979 10.9807 14.8021 11.2248 14.5581L15.1578 10.625H3.33337C2.9882 10.625 2.70837 10.3452 2.70837 10C2.70837 9.65482 2.9882 9.375 3.33337 9.375H15.1578L11.2248 5.44194C10.9807 5.19786 10.9807 4.80214 11.2248 4.55806Z" fill="currentColor" />

    </symbol>
    <symbol id="arrow-right-alt" width="100%" height="100%" viewBox="0 0 32 19">
      <path fill-rule="evenodd" clip-rule="evenodd" d="M26.4833 9.93584H0V8.61106H26.4626C25.5887 8.19476 24.8301 7.67809 24.1629 7.05973C22.3987 5.42479 21.3458 3.14178 20.4255 0.361747L21.564 0C22.4707 2.73915 23.449 4.784 24.9854 6.2079C26.3522 7.47476 28.2191 8.30143 31.0311 8.61106H32V8.69484V9.86484V9.93584H31.1493C28.2707 10.2349 26.3707 11.0641 24.9849 12.3459C23.4489 13.7666 22.4707 15.8081 21.564 18.5471L20.4255 18.1853C21.3459 15.4051 22.3989 13.1251 24.1633 11.4933C24.8357 10.8714 25.6009 10.3528 26.4833 9.93584Z" fill="currentColor" />

    </symbol>
    <symbol id="arrow-left" width="100%" height="100%" viewBox="0 0 15 10">
      <path d="M2 5L1.29289 4.29289L0.585786 5L1.29289 5.70711L2 5ZM14 6C14.5523 6 15 5.55228 15 5C15 4.44772 14.5523 4 14 4V6ZM5.29289 0.292893L1.29289 4.29289L2.70711 5.70711L6.70711 1.70711L5.29289 0.292893ZM1.29289 5.70711L5.29289 9.70711L6.70711 8.29289L2.70711 4.29289L1.29289 5.70711ZM2 6H14V4H2V6Z" fill="currentColor" />
    </symbol>
    <symbol id="arrow-left-alt" width="100%" height="100%" viewBox="0 0 32 19">
      <path fill-rule="evenodd" clip-rule="evenodd" d="M5.51674 9.93584H32V8.61106H5.53737C6.41131 8.19476 7.16994 7.67809 7.83714 7.05973C9.60126 5.42479 10.6542 3.14178 11.5745 0.361747L10.436 0C9.52926 2.73915 8.55097 4.784 7.01463 6.2079C5.64777 7.47476 3.78091 8.30143 0.968855 8.61106H0V8.69484V9.86484V9.93584H0.850685C3.72931 10.2349 5.62931 11.0641 7.01514 12.3459C8.55114 13.7666 9.52926 15.8081 10.436 18.5471L11.5745 18.1853C10.6541 15.4051 9.60108 13.1251 7.83674 11.4933C7.16428 10.8714 6.39908 10.3528 5.51674 9.93584Z" fill="currentColor" />

    </symbol>
    <symbol id="gal-ochka" width="100%" height="100%" viewBox="0 0 12 10">
      <path d="M6.23497 8.79946C5.9649 9.16602 5.54433 9.3913 5.0896 9.41369C4.63487 9.43632 4.19445 9.25304 3.88975 8.91464L1.15929 5.88456C0.725328 5.40328 0.763876 4.6614 1.24515 4.22744C1.72689 3.79348 2.46831 3.83226 2.90227 4.31377L4.83407 6.45771C4.8627 6.48956 4.90425 6.50664 4.94695 6.50456C4.98988 6.50249 5.02912 6.48102 5.05475 6.44686L9.02546 1.0614C9.40979 0.539728 10.1443 0.428699 10.6662 0.813259C11.1876 1.19782 11.2984 1.93232 10.9139 2.45376L6.23497 8.79946Z" fill="currentColor" />
    </symbol>
    <symbol id="gal-ochka-alt" width="100%" height="100%" viewBox="0 0 22 22" fill="none">

      <path d="M6.4165 12.3334C6.4165 12.3334 7.39865 12.3334 8.70817 14.6667C8.70817 14.6667 12.348 8.55537 15.5832 7.33337" stroke="currentColor" stroke-width="2" stroke-linecap="round" stroke-linejoin="round" />

    </symbol>
    <symbol id="to-right" width="100%" height="100%" viewBox="0 0 8 14">
      <path d="M5.63663 7.00019L1.15148 2.51504C0.7935 2.15706 0.7935 1.57666 1.15148 1.21868C1.50946 0.8607 2.08986 0.8607 2.44784 1.21868L7.58118 6.35201C7.93916 6.70999 7.93916 7.29039 7.58118 7.64838L2.44784 12.7817C2.08986 13.1397 1.50946 13.1397 1.15148 12.7817C0.7935 12.4237 0.7935 11.8433 1.15148 11.4853L5.63663 7.00019Z" fill="currentColor" />
    </symbol>
    <symbol id="to-right-disc" width="100%" height="100%" viewBox="0 0 24 24">

      <path fill-rule="evenodd" clip-rule="evenodd" d="M12 22C17.5228 22 22 17.5228 22 12C22 6.47715 17.5228 2 12 2C6.47715 2 2 6.47715 2 12C2 17.5228 6.47715 22 12 22ZM9.96967 8.46967C10.2626 8.17678 10.7374 8.17678 11.0303 8.46967L14.0303 11.4697C14.3232 11.7626 14.3232 12.2374 14.0303 12.5303L11.0303 15.5303C10.7374 15.8232 10.2626 15.8232 9.96967 15.5303C9.67678 15.2374 9.67678 14.7626 9.96967 14.4697L12.4393 12L9.96967 9.53033C9.67678 9.23744 9.67678 8.76256 9.96967 8.46967Z" fill="currentColor" />


    </symbol>
    <symbol id="to-left" width="100%" height="100%" viewBox="0 0 8 14">
      <path d="M2.36337 7.00019L6.84852 2.51504C7.2065 2.15706 7.2065 1.57666 6.84852 1.21868C6.49054 0.8607 5.91014 0.8607 5.55216 1.21868L0.418823 6.35201C0.0608425 6.70999 0.0608425 7.29039 0.418823 7.64838L5.55216 12.7817C5.91014 13.1397 6.49054 13.1397 6.84852 12.7817C7.2065 12.4237 7.2065 11.8433 6.84852 11.4853L2.36337 7.00019Z" fill="currentColor" />
    </symbol>
    <symbol id="play" width="100%" height="100%" viewBox="0 0 24 24">
      <path d="M19.5761 9.35258C21.4746 10.5065 21.4746 13.4935 19.5761 14.6474L8.11276 21.6145C6.26758 22.736 4 21.2763 4 18.9671L4 5.0329C4 2.72368 6.26758 1.26402 8.11276 2.38548L19.5761 9.35258Z" fill="currentColor" />
    </symbol>
    <symbol id="cross" width="100%" height="100%" viewBox="0 0 16 16">
      <path d="M1 15L15 1M1 1L15 15" fill="none" stroke="currentColor" stroke-width="2" stroke-linecap="round" stroke-linejoin="round" />
    </symbol>
    <symbol id="case" width="100%" height="100%" viewBox="0 0 36 36" fill="none">
      <path d="M4.5 18C4.5 23.6569 4.5 29.4853 6.47703 31.2426C8.45406 33 11.636 33 18 33C24.364 33 27.5459 33 29.523 31.2426C31.5 29.4853 31.5 23.6569 31.5 18" stroke="currentColor" stroke-width="1.5" />
      <path d="M21.9905 21.3029L31.2869 18.5139C31.9032 18.329 32.2114 18.2366 32.4396 18.0532C32.6388 17.8931 32.7939 17.6848 32.89 17.4479C33 17.1767 33 16.8549 33 16.2115C33 13.6804 33 12.4149 32.5054 11.449C32.0751 10.6086 31.3914 9.92489 30.551 9.49457C29.5851 9 28.3196 9 25.7885 9H10.2115C7.68041 9 6.41488 9 5.44901 9.49457C4.60863 9.92489 3.92489 10.6086 3.49457 11.449C3 12.4149 3 13.6804 3 16.2115C3 16.8549 3 17.1767 3.11005 17.4479C3.20615 17.6848 3.36118 17.8931 3.56044 18.0532C3.78861 18.2366 4.09677 18.329 4.71309 18.5139L14.0095 21.3029" stroke="currentColor" stroke-width="1.5" />
      <path d="M21 18.75H15C14.5858 18.75 14.25 19.0858 14.25 19.5V22.7422C14.25 23.0489 14.4367 23.3247 14.7215 23.4386L15.7717 23.8587C17.2021 24.4308 18.7979 24.4308 20.2283 23.8587L21.2785 23.4386C21.5633 23.3247 21.75 23.0489 21.75 22.7422V19.5C21.75 19.0858 21.4142 18.75 21 18.75Z" stroke="currentColor" stroke-width="1.5" stroke-linecap="round" />
      <path d="M13.7563 6C14.3741 4.25221 16.041 3 18.0003 3C19.9596 3 21.6265 4.25221 22.2442 6" stroke="currentColor" stroke-width="1.5" stroke-linecap="round" />

    </symbol>
    <symbol id="building" width="100%" height="100%" viewBox="0 0 36 36" fill="none">
      <path d="M33 33L3 33" stroke="currentColor" stroke-width="1.5" stroke-linecap="round" />
      <path d="M25.5 33V9C25.5 6.17157 25.5 4.75736 24.6213 3.87868C23.7426 3 22.3284 3 19.5 3H16.5C13.6716 3 12.2574 3 11.3787 3.87868C10.5 4.75736 10.5 6.17157 10.5 9V33" stroke="currentColor" stroke-width="1.5" />
      <path d="M31.5 33V17.25C31.5 15.1433 31.5 14.09 30.9944 13.3333C30.7755 13.0057 30.4943 12.7245 30.1667 12.5056C29.41 12 28.3567 12 26.25 12" stroke="currentColor" stroke-width="1.5" />
      <path d="M4.5 33V17.25C4.5 15.1433 4.5 14.09 5.00559 13.3333C5.22447 13.0057 5.50572 12.7245 5.83329 12.5056C6.58996 12 7.64331 12 9.75 12" stroke="currentColor" stroke-width="1.5" />
      <path d="M18 33V28.5" stroke="currentColor" stroke-width="1.5" stroke-linecap="round" />
      <path d="M15 7.5H21" stroke="currentColor" stroke-width="1.5" stroke-linecap="round" />
      <path d="M15 12H21" stroke="currentColor" stroke-width="1.5" stroke-linecap="round" />
      <path d="M15 16.5H21" stroke="currentColor" stroke-width="1.5" stroke-linecap="round" />
      <path d="M15 21H21" stroke="currentColor" stroke-width="1.5" stroke-linecap="round" />

    </symbol>
    <symbol id="ruler" width="100%" height="100%" viewBox="0 0 36 36" fill="none">
      <path d="M3 9V27.75C3 29.8567 3 30.91 3.50559 31.6667C3.72447 31.9943 4.00572 32.2755 4.33329 32.4944C5.08996 33 6.14331 33 8.25 33C10.3567 33 11.41 33 12.1667 32.4944C12.4943 32.2755 12.7755 31.9943 12.9944 31.6667C13.5 30.91 13.5 29.8567 13.5 27.75V16.5C13.5 15.0858 13.5 14.3787 13.9393 13.9393C14.3787 13.5 15.0858 13.5 16.5 13.5H27.75C29.8567 13.5 30.91 13.5 31.6667 12.9944C31.9943 12.7755 32.2755 12.4943 32.4944 12.1667C33 11.41 33 10.3567 33 8.25C33 6.14331 33 5.08996 32.4944 4.33329C32.2755 4.00572 31.9943 3.72447 31.6667 3.50559C30.91 3 29.8567 3 27.75 3H9C6.17157 3 4.75736 3 3.87868 3.87868C3 4.75736 3 6.17157 3 9Z" stroke="currentColor" stroke-width="1.5" stroke-linecap="round" />
      <path d="M18 3L18 6M27 3L27 6M13.5 3L13.5 7.5M22.5 3L22.5 7.5" stroke="currentColor" stroke-width="1.5" stroke-linecap="round" />
      <path d="M3 18H6M3 27H6M3 22.5L7.5 22.5M3 13.5L7.5 13.5" stroke="currentColor" stroke-width="1.5" stroke-linecap="round" />

    </symbol>
    <symbol id="key-square" width="100%" height="100%" viewBox="0 0 36 36" fill="none">

      <path d="M30.4714 5.52864L31.0017 4.99831V4.99831L30.4714 5.52864ZM30.4714 17.738L31.0017 18.2683L30.4714 17.738ZM15.682 15.0854L15.1516 14.5551L15.1516 14.5551L15.682 15.0854ZM11.0419 19.7256L11.5722 20.2559L11.5722 20.2559L11.0419 19.7256ZM16.2744 24.9581L15.7441 24.4278H15.7441L16.2744 24.9581ZM20.9149 20.3177L20.3846 19.7873L20.9149 20.3177ZM10.5113 21.238L9.76591 21.3208L10.5113 21.238ZM10.8014 23.8487L10.056 23.9316L10.056 23.9316L10.8014 23.8487ZM12.1513 25.1986L12.0684 25.944H12.0684L12.1513 25.1986ZM14.762 25.4887L14.8448 24.7433H14.8448L14.762 25.4887ZM11.1551 24.5846L11.6854 24.0543L11.6854 24.0543L11.1551 24.5846ZM11.4154 24.8449L10.885 25.3752L10.885 25.3752L11.4154 24.8449ZM16.0054 13.7889L15.279 13.9754V13.9754L16.0054 13.7889ZM22.2111 19.9946L22.0246 20.721L22.2111 19.9946ZM16.166 20.712C15.8715 20.4207 15.3967 20.4233 15.1054 20.7178C14.8141 21.0123 14.8167 21.4872 15.1112 21.7785L16.166 20.712ZM23.0126 12.9874C22.3291 12.304 22.3291 11.196 23.0126 10.5126L21.9519 9.4519C20.6827 10.7211 20.6827 12.7789 21.9519 14.0481L23.0126 12.9874ZM25.4874 12.9874C24.804 13.6709 23.696 13.6709 23.0126 12.9874L21.9519 14.0481C23.2211 15.3173 25.2789 15.3173 26.5481 14.0481L25.4874 12.9874ZM25.4874 10.5126C26.1709 11.196 26.1709 12.304 25.4874 12.9874L26.5481 14.0481C27.8173 12.7789 27.8173 10.7211 26.5481 9.4519L25.4874 10.5126ZM26.5481 9.4519C25.2789 8.1827 23.2211 8.1827 21.9519 9.4519L23.0126 10.5126C23.696 9.82915 24.804 9.82915 25.4874 10.5126L26.5481 9.4519ZM29.941 6.05897C33.0197 9.1376 33.0197 14.129 29.941 17.2077L31.0017 18.2683C34.6661 14.6039 34.6661 8.66272 31.0017 4.99831L29.941 6.05897ZM31.0017 4.99831C27.3373 1.3339 21.3961 1.3339 17.7317 4.99831L18.7923 6.05897C21.871 2.98034 26.8624 2.98034 29.941 6.05897L31.0017 4.99831ZM15.1516 14.5551L10.5115 19.1952L11.5722 20.2559L16.2123 15.6158L15.1516 14.5551ZM16.8048 25.4885L18.3553 23.938L17.2946 22.8773L15.7441 24.4278L16.8048 25.4885ZM18.3553 23.938L21.4452 20.848L20.3846 19.7873L17.2946 22.8773L18.3553 23.938ZM9.76591 21.3208L10.056 23.9316L11.5468 23.7659L11.2567 21.1552L9.76591 21.3208ZM12.0684 25.944L14.6792 26.2341L14.8448 24.7433L12.2341 24.4532L12.0684 25.944ZM10.6248 25.115L10.885 25.3752L11.9457 24.3146L11.6854 24.0543L10.6248 25.115ZM12.2341 24.4532C12.125 24.4411 12.0233 24.3922 11.9457 24.3146L10.885 25.3752C11.2035 25.6937 11.6208 25.8943 12.0684 25.944L12.2341 24.4532ZM10.056 23.9316C10.1057 24.3792 10.3063 24.7965 10.6248 25.115L11.6854 24.0543C11.6078 23.9767 11.5589 23.875 11.5468 23.7659L10.056 23.9316ZM15.7441 24.4278C15.5078 24.6641 15.1769 24.7802 14.8448 24.7433L14.6792 26.2341C15.4642 26.3213 16.2463 26.047 16.8048 25.4885L15.7441 24.4278ZM10.5115 19.1952C9.95304 19.7537 9.67869 20.5358 9.76591 21.3208L11.2567 21.1552C11.2198 20.8231 11.3359 20.4922 11.5722 20.2559L10.5115 19.1952ZM16.7318 13.6024C16.0608 10.9892 16.7488 8.10252 18.7923 6.05897L17.7317 4.99831C15.2979 7.43211 14.4815 10.8699 15.279 13.9754L16.7318 13.6024ZM29.941 17.2077C27.8975 19.2512 25.0108 19.9392 22.3976 19.2682L22.0246 20.721C25.1301 21.5185 28.5679 20.7021 31.0017 18.2683L29.941 17.2077ZM21.4452 20.848C21.5684 20.7249 21.7824 20.6589 22.0246 20.721L22.3976 19.2682C21.7175 19.0935 20.9348 19.2371 20.3846 19.7873L21.4452 20.848ZM16.2123 15.6158C16.7623 15.0658 16.9066 14.2829 16.7318 13.6024L15.279 13.9754C15.3411 14.2172 15.275 14.4318 15.1516 14.5551L16.2123 15.6158ZM18.3524 22.8744L16.166 20.712L15.1112 21.7785L17.2975 23.9409L18.3524 22.8744Z" fill="currentColor" />
      <path d="M33 22.4894C32.9042 26.6805 32.5038 29.1285 30.8312 30.8011C28.6323 33 25.0933 33 18.0151 33C10.9369 33 7.39781 33 5.19891 30.8011C3 28.6022 3 25.0631 3 17.9849C3 10.9067 3 7.36766 5.19891 5.16875C6.87149 3.49617 9.31946 3.09583 13.5106 3" stroke="currentColor" stroke-width="1.5" stroke-linecap="round" />


    </symbol>
    <symbol id="crop" width="100%" height="100%" viewBox="0 0 36 36" fill="none">
      <path d="M33 28.5H19.5C13.8431 28.5 11.0147 28.5 9.25736 26.7426C7.5 24.9853 7.5 22.1569 7.5 16.5V3" stroke="currentColor" stroke-width="1.5" stroke-linecap="round" />
      <path d="M12 7.5H16.5C22.1569 7.5 24.9853 7.5 26.7426 9.25736C28.5 11.0147 28.5 13.8431 28.5 19.5V24M3 7.5H7.5M28.5 28.5V33" stroke="currentColor" stroke-width="1.5" stroke-linecap="round" />




    </symbol>
    <symbol id="download" width="100%" height="100%" viewBox="0 0 20 20" fill="none">
      <path d="M10 3.33337L10 16.6667M10 16.6667L15 11.6667M10 16.6667L5 11.6667" stroke="currentColor" stroke-width="1.5" stroke-linecap="round" stroke-linejoin="round" />
    </symbol>
    <symbol id="question-circle" width="100%" height="100%" viewBox="0 0 24 24" fill="none">

      <path fill-rule="evenodd" clip-rule="evenodd" d="M12 1C5.925 1 1 5.925 1 12C1 18.075 5.925 23 12 23C18.075 23 23 18.075 23 12C23 5.925 18.075 1 12 1ZM10.892 8.935C11.122 8.482 11.292 8.267 11.433 8.155C11.539 8.071 11.683 8 12 8C12.625 8 13 8.47 13 8.978C13 9.256 12.946 9.394 12.798 9.57C12.591 9.816 12.208 10.115 11.45 10.616C11.1691 10.8008 11 11.1144 11 11.4506V13C11 13.2652 11.1054 13.5196 11.2929 13.7071C11.4804 13.8946 11.7348 14 12 14C12.2652 14 12.5196 13.8946 12.7071 13.7071C12.8946 13.5196 13 13.2652 13 13C13 12.3632 13.3272 11.7842 13.8112 11.3703C14.006 11.2037 14.179 11.0348 14.327 10.859C14.804 10.293 15 9.689 15 8.978C15 7.508 13.867 6 12 6C11.316 6 10.711 6.176 10.192 6.587C9.708 6.97 9.378 7.497 9.108 8.032C9.04526 8.14947 9.00661 8.27828 8.99433 8.41089C8.98205 8.54349 8.99637 8.67722 9.03647 8.80421C9.07657 8.9312 9.14163 9.04891 9.22783 9.15042C9.31403 9.25193 9.41964 9.3352 9.53846 9.39534C9.65728 9.45548 9.78691 9.49128 9.91975 9.50065C10.0526 9.51001 10.186 9.49275 10.3121 9.44987C10.4381 9.40699 10.5544 9.33936 10.654 9.25094C10.7536 9.16253 10.8345 9.05511 10.892 8.935ZM13 16.5C13 16.2348 12.8946 15.9804 12.7071 15.7929C12.5196 15.6054 12.2652 15.5 12 15.5C11.7348 15.5 11.4804 15.6054 11.2929 15.7929C11.1054 15.9804 11 16.2348 11 16.5V17C11 17.2652 11.1054 17.5196 11.2929 17.7071C11.4804 17.8946 11.7348 18 12 18C12.2652 18 12.5196 17.8946 12.7071 17.7071C12.8946 17.5196 13 17.2652 13 17V16.5Z" fill="currentColor" />


    </symbol>
    <symbol id="star" width="100%" height="100%" viewBox="0 0 24 24" fill="none">
      <path d="M11.9998 17.75L5.82784 20.995L7.00684 14.122L2.00684 9.25495L8.90684 8.25495L11.9928 2.00195L15.0788 8.25495L21.9788 9.25495L16.9788 14.122L18.1578 20.995L11.9998 17.75Z" fill="currentColor" />


    </symbol>
    <symbol id="smile" width="100%" height="100%" viewBox="0 0 48 48" fill="none">
      <path fill-rule="evenodd" clip-rule="evenodd" d="M24 44C35.0457 44 44 35.0457 44 24C44 12.9543 35.0457 4 24 4C12.9543 4 4 12.9543 4 24C4 35.0457 12.9543 44 24 44ZM16.7949 31.1068C17.2883 30.4412 18.2277 30.3016 18.8932 30.7949C20.3499 31.8747 22.1082 32.5 24 32.5C25.8918 32.5 27.6501 31.8747 29.1068 30.7949C29.7723 30.3016 30.7117 30.4412 31.2051 31.1068C31.6984 31.7723 31.5588 32.7117 30.8932 33.2051C28.9484 34.6466 26.5699 35.5 24 35.5C21.4301 35.5 19.0516 34.6466 17.1068 33.2051C16.4412 32.7117 16.3016 31.7723 16.7949 31.1068ZM32 21C32 22.6569 31.1046 24 30 24C28.8954 24 28 22.6569 28 21C28 19.3431 28.8954 18 30 18C31.1046 18 32 19.3431 32 21ZM18 24C19.1046 24 20 22.6569 20 21C20 19.3431 19.1046 18 18 18C16.8954 18 16 19.3431 16 21C16 22.6569 16.8954 24 18 24Z" fill="currentColor" />

    </symbol>
    <symbol id="building" width="100%" height="100%" viewBox="0 0 56 56" fill="none">
      <path d="M51.3334 51.3335L4.66675 51.3335" stroke="currentColor" stroke-width="2" stroke-linecap="round" />
      <path d="M49 51.3332V13.9998C49 9.60006 49 7.40017 47.6331 6.03334C46.2663 4.6665 44.0664 4.6665 39.6666 4.6665H35C30.6002 4.6665 28.4003 4.6665 27.0335 6.03334C25.9332 7.13361 25.7186 8.77368 25.6768 11.6665" stroke="currentColor" stroke-width="2" />
      <path d="M35 51.3332V20.9998C35 16.6001 35 14.4002 33.6332 13.0333C32.2663 11.6665 30.0664 11.6665 25.6667 11.6665H16.3333C11.9336 11.6665 9.73367 11.6665 8.36684 13.0333C7 14.4002 7 16.6001 7 20.9998V51.3332" stroke="currentColor" stroke-width="2" />
      <path d="M21 51.3335V44.3335" stroke="currentColor" stroke-width="2" stroke-linecap="round" />
      <path d="M14 18.6665H28" stroke="currentColor" stroke-width="2" stroke-linecap="round" />
      <path d="M14 25.6665H28" stroke="currentColor" stroke-width="2" stroke-linecap="round" />
      <path d="M14 32.6665H28" stroke="currentColor" stroke-width="2" stroke-linecap="round" />

    </symbol>

    <symbol id="users" width="100%" height="100%" viewBox="0 0 38 38" fill="none">
      <circle cx="14.2513" cy="9.49999" r="6.33333" fill="currentColor" />
      <ellipse cx="14.2513" cy="26.9182" rx="11.0833" ry="6.33333" fill="currentColor" />
      <path d="M33.2495 26.9174C33.2495 29.5407 30.0265 31.6673 26.0915 31.6673C27.2508 30.4002 28.048 28.8096 28.048 26.9196C28.048 25.0274 27.2489 23.4353 26.0874 22.1674C30.0225 22.1674 33.2495 24.294 33.2495 26.9174Z" fill="currentColor" />
      <path d="M28.4995 9.50116C28.4995 12.1245 26.3728 14.2512 23.7495 14.2512C23.1774 14.2512 22.629 14.15 22.1211 13.9647C22.8701 12.6472 23.298 11.1233 23.298 9.49939C23.298 7.87672 22.8708 6.35382 22.1228 5.03701C22.6302 4.85205 23.178 4.75116 23.7495 4.75116C26.3728 4.75116 28.4995 6.87781 28.4995 9.50116Z" fill="currentColor" />


    </symbol>
    <symbol id="globus" width="100%" height="100%" viewBox="0 0 38 38" fill="none">
      <path d="M13.2797 8.042C13.024 7.61853 12.7556 7.22314 12.4889 6.86312C14.3168 5.53398 16.5668 4.75 18.9998 4.75C21.0898 4.75 23.0447 5.32849 24.7131 6.33408C24.6891 6.47518 24.655 6.63502 24.6079 6.81295C24.4406 7.44489 24.1775 8.048 23.9538 8.40006C23.8767 8.52146 23.5595 8.83151 22.9841 9.26018C22.7276 9.45129 22.4428 9.62679 22.1036 9.8295L21.986 9.89969C21.6891 10.0766 21.3494 10.279 21.0219 10.5034C20.2492 11.0328 19.4446 11.7483 18.9034 12.9054C18.512 13.7422 18.539 14.5572 18.712 15.2109C18.7685 15.4243 18.7995 15.6391 18.8 15.8278C18.8001 15.8865 18.7772 15.9802 18.6461 16.0897C18.5052 16.2075 18.3067 16.2786 18.1282 16.2766C16.423 16.2573 15.0779 14.8449 14.8827 12.5918C14.7343 10.8794 14.0347 9.2923 13.2797 8.042Z" fill="currentColor" />
      <path d="M26.365 22.9725C26.7838 22.9681 27.1766 22.9406 27.545 22.8922C26.1554 24.5725 24.2797 25.8361 22.1333 26.4675C22.0599 25.8636 22.1081 25.138 22.464 24.4673C22.7678 23.8948 23.5372 23.4645 24.5757 23.2093C25.0527 23.092 25.5063 23.0318 25.8434 23.0016C26.0103 22.9866 26.1447 22.9793 26.2341 22.9758C26.2787 22.974 26.3119 22.9732 26.332 22.9728L26.3512 22.9726L26.365 22.9725Z" fill="currentColor" />
      <path d="M7.9165 15.8333C7.9165 13.111 8.89801 10.6179 10.5264 8.68859C10.6866 8.91584 10.8472 9.15954 11.0026 9.41693C11.6382 10.4696 12.1319 11.6591 12.2326 12.8214C12.503 15.9422 14.5783 18.8966 18.0981 18.9365C19.6209 18.9537 21.4649 17.8091 21.46 15.8212C21.4588 15.366 21.3873 14.9224 21.2834 14.5301C21.2334 14.3412 21.2406 14.187 21.3129 14.0323C21.5829 13.455 21.9815 13.0704 22.5253 12.6978C22.7786 12.5242 23.0419 12.3672 23.3464 12.1855L23.4684 12.1127C23.8093 11.909 24.1979 11.673 24.5734 11.3932C25.1194 10.9864 25.8251 10.4151 26.199 9.82653C26.495 9.36066 26.7693 8.76328 26.9817 8.14373C28.9022 10.1367 30.0832 12.8471 30.0832 15.8333C30.0832 16.6762 29.9891 17.4971 29.8109 18.286C29.7041 18.6021 29.5712 18.8974 29.3316 19.2082C28.9561 19.6955 28.2039 20.2931 26.3373 20.3126L26.3279 20.3126L26.2823 20.3133C26.2448 20.314 26.1932 20.3153 26.129 20.3179C26.0009 20.3229 25.822 20.3328 25.6056 20.3522C25.1761 20.3908 24.5832 20.4682 23.9408 20.6261C22.7403 20.9212 20.9787 21.5917 20.1143 23.2205C19.4323 24.5057 19.3554 25.8251 19.5091 26.9052C19.3403 26.9128 19.1705 26.9167 18.9998 26.9167C12.8787 26.9167 7.9165 21.9545 7.9165 15.8333Z" fill="currentColor" />
      <path fill-rule="evenodd" clip-rule="evenodd" d="M28.5057 2.37471C28.9431 1.88602 29.6938 1.84443 30.1825 2.28182C33.7642 5.4875 36.021 10.1498 36.021 15.3377C36.021 24.4441 29.0721 31.9274 20.1877 32.7744V33.6458H22.1668C22.8227 33.6458 23.3543 34.1775 23.3543 34.8333C23.3543 35.4892 22.8227 36.0208 22.1668 36.0208H15.8335C15.1777 36.0208 14.646 35.4892 14.646 34.8333C14.646 34.1775 15.1777 33.6458 15.8335 33.6458H17.8127V32.8407C12.9031 32.6499 8.51116 30.4373 5.44866 27.0157C5.01127 26.527 5.05286 25.7762 5.54155 25.3388C6.03024 24.9015 6.78097 24.943 7.21835 25.4317C9.99255 28.5313 14.0203 30.4792 18.5046 30.4792C26.867 30.4792 33.646 23.7001 33.646 15.3377C33.646 10.8535 31.6982 6.82571 28.5986 4.05152C28.1099 3.61413 28.0683 2.8634 28.5057 2.37471Z" fill="currentColor" />
    </symbol>
    <symbol id="user-id" width="100%" height="100%" viewBox="0 0 38 38" fill="none">

      <path fill-rule="evenodd" clip-rule="evenodd" d="M15.8332 6.33331H22.1665C28.1376 6.33331 31.1232 6.33331 32.9782 8.1883C34.8332 10.0433 34.8332 13.0289 34.8332 19C34.8332 24.9711 34.8332 27.9567 32.9782 29.8117C31.1232 31.6666 28.1376 31.6666 22.1665 31.6666H15.8332C9.86205 31.6666 6.87648 31.6666 5.02149 29.8117C3.1665 27.9567 3.1665 24.9711 3.1665 19C3.1665 13.0289 3.1665 10.0433 5.02149 8.1883C6.87648 6.33331 9.86205 6.33331 15.8332 6.33331ZM20.979 14.25C20.979 13.5941 21.5107 13.0625 22.1665 13.0625H30.0832C30.739 13.0625 31.2707 13.5941 31.2707 14.25C31.2707 14.9058 30.739 15.4375 30.0832 15.4375H22.1665C21.5107 15.4375 20.979 14.9058 20.979 14.25ZM22.5623 19C22.5623 18.3441 23.094 17.8125 23.7498 17.8125H30.0832C30.739 17.8125 31.2707 18.3441 31.2707 19C31.2707 19.6558 30.739 20.1875 30.0832 20.1875H23.7498C23.094 20.1875 22.5623 19.6558 22.5623 19ZM24.1457 23.75C24.1457 23.0941 24.6773 22.5625 25.3332 22.5625H30.0832C30.739 22.5625 31.2707 23.0941 31.2707 23.75C31.2707 24.4058 30.739 24.9375 30.0832 24.9375H25.3332C24.6773 24.9375 24.1457 24.4058 24.1457 23.75ZM17.4165 14.25C17.4165 15.9989 15.9987 17.4166 14.2498 17.4166C12.5009 17.4166 11.0832 15.9989 11.0832 14.25C11.0832 12.5011 12.5009 11.0833 14.2498 11.0833C15.9987 11.0833 17.4165 12.5011 17.4165 14.25ZM14.2498 26.9166C20.5832 26.9166 20.5832 25.4989 20.5832 23.75C20.5832 22.0011 17.7476 20.5833 14.2498 20.5833C10.752 20.5833 7.9165 22.0011 7.9165 23.75C7.9165 25.4989 7.9165 26.9166 14.2498 26.9166Z" fill="currentColor" />


    </symbol>
    <symbol id="check" width="100%" height="100%" viewBox="0 0 38 38" fill="none">
      <path fill-rule="evenodd" clip-rule="evenodd" d="M18.9998 34.8334C11.5359 34.8334 7.80398 34.8334 5.48524 32.5146C3.1665 30.1959 3.1665 26.4639 3.1665 19C3.1665 11.5361 3.1665 7.80416 5.48524 5.48542C7.80398 3.16669 11.5359 3.16669 18.9998 3.16669C26.4637 3.16669 30.1957 3.16669 32.5144 5.48542C34.8332 7.80416 34.8332 11.5361 34.8332 19C34.8332 26.4639 34.8332 30.1959 32.5144 32.5146C30.1957 34.8334 26.4637 34.8334 18.9998 34.8334ZM25.3812 14.202C25.8449 14.6657 25.8449 15.4176 25.3812 15.8814L17.4645 23.798C17.0008 24.2618 16.2489 24.2618 15.7851 23.798L12.6185 20.6314C12.1547 20.1676 12.1547 19.4157 12.6185 18.952C13.0822 18.4882 13.8341 18.4882 14.2979 18.952L16.6248 21.279L23.7018 14.202C24.1656 13.7382 24.9174 13.7382 25.3812 14.202Z" fill="currentColor" />

    </symbol>

    <symbol id="settings" width="100%" height="100%" viewBox="0 0 38 38" fill="none">
      <path fill-rule="evenodd" clip-rule="evenodd" d="M22.6081 3.40774C22.0217 3.16669 21.2784 3.16669 19.7917 3.16669C18.305 3.16669 17.5616 3.16669 16.9752 3.40774C16.1934 3.72913 15.5722 4.3456 15.2484 5.12152C15.1005 5.47573 15.0427 5.88765 15.0201 6.48851C14.9868 7.37151 14.5305 8.18885 13.7594 8.63066C12.9884 9.07246 12.047 9.05596 11.2599 8.64305C10.7242 8.36208 10.3358 8.20584 9.95282 8.1558C9.11381 8.04617 8.26529 8.27182 7.59391 8.78309C7.09038 9.16654 6.7187 9.80544 5.97535 11.0832C5.23199 12.361 4.86031 13 4.77747 13.6245C4.66701 14.4571 4.89437 15.2992 5.40953 15.9655C5.64467 16.2697 5.97514 16.5253 6.48803 16.8451C7.24203 17.3153 7.72718 18.1163 7.72713 19.0001C7.72708 19.8837 7.24195 20.6846 6.48803 21.1547C5.97505 21.4746 5.64454 21.7302 5.40938 22.0344C4.89421 22.7007 4.66685 23.5428 4.77731 24.3755C4.86015 25 5.23183 25.6389 5.97519 26.9167C6.71855 28.1945 7.09023 28.8334 7.59376 29.2168C8.26513 29.7281 9.11365 29.9538 9.95266 29.8441C10.3356 29.7941 10.724 29.6379 11.2596 29.3569C12.0468 28.944 12.9882 28.9275 13.7594 29.3693C14.5305 29.8112 14.9868 30.6286 15.0201 31.5116C15.0427 32.1124 15.1006 32.5243 15.2484 32.8785C15.5722 33.6544 16.1934 34.2709 16.9752 34.5923C17.5616 34.8334 18.305 34.8334 19.7917 34.8334C21.2784 34.8334 22.0217 34.8334 22.6081 34.5923C23.3899 34.2709 24.0111 33.6544 24.335 32.8785C24.4828 32.5243 24.5406 32.1124 24.5633 31.5115C24.5965 30.6285 25.0528 29.8112 25.8238 29.3693C26.5949 28.9274 27.5364 28.9439 28.3236 29.3568C28.8592 29.6378 29.2475 29.794 29.6305 29.844C30.4695 29.9536 31.318 29.728 31.9894 29.2167C32.4929 28.8333 32.8646 28.1944 33.608 26.9166C34.3513 25.6388 34.723 24.9999 34.8059 24.3754C34.9163 23.5427 34.689 22.7006 34.1738 22.0343C33.9386 21.7302 33.6082 21.4745 33.0952 21.1546C32.3413 20.6845 31.8562 19.8836 31.8562 18.9999C31.8563 18.1163 32.3413 17.3155 33.0952 16.8454C33.6082 16.5255 33.9388 16.2698 34.174 15.9656C34.6891 15.2993 34.9165 14.4572 34.806 13.6246C34.7232 13.0001 34.3515 12.3612 33.6081 11.0834C32.8648 9.80555 32.4931 9.16665 31.9896 8.78319C31.3182 8.27192 30.4697 8.04628 29.6307 8.1559C29.2477 8.20594 28.8593 8.36217 28.3237 8.64312C27.5365 9.05604 26.5951 9.07255 25.824 8.63071C25.0529 8.18887 24.5966 7.37148 24.5633 6.48842C24.5406 5.88761 24.4828 5.47571 24.335 5.12152C24.0111 4.3456 23.3899 3.72913 22.6081 3.40774ZM19.7917 23.75C22.435 23.75 24.5778 21.6234 24.5778 19C24.5778 16.3767 22.435 14.25 19.7917 14.25C17.1483 14.25 15.0055 16.3767 15.0055 19C15.0055 21.6234 17.1483 23.75 19.7917 23.75Z" fill="currentColor" />


    </symbol>
    <symbol id="statistic" width="100%" height="100%" viewBox="0 0 38 38" fill="none">
      <path fill-rule="evenodd" clip-rule="evenodd" d="M5.48524 5.48536C3.1665 7.8041 3.1665 11.5361 3.1665 19C3.1665 26.4639 3.1665 30.1958 5.48524 32.5146C7.80398 34.8333 11.5359 34.8333 18.9998 34.8333C26.4637 34.8333 30.1957 34.8333 32.5144 32.5146C34.8332 30.1958 34.8332 26.4639 34.8332 19C34.8332 11.5361 34.8332 7.8041 32.5144 5.48536C30.1957 3.16663 26.4637 3.16663 18.9998 3.16663C11.5359 3.16663 7.80398 3.16663 5.48524 5.48536ZM21.7707 15.8333C21.7707 16.4891 22.3023 17.0208 22.9582 17.0208H24.0496L20.8631 20.2073C20.7085 20.3619 20.4579 20.3619 20.3033 20.2073L17.7924 17.6965C16.7104 16.6144 14.956 16.6144 13.8739 17.6965L10.2435 21.3269C9.77973 21.7907 9.77973 22.5426 10.2435 23.0063C10.7072 23.4701 11.4591 23.4701 11.9229 23.0063L15.5533 19.3759C15.7079 19.2213 15.9585 19.2213 16.1131 19.3759L18.6239 21.8867C19.706 22.9688 21.4604 22.9688 22.5424 21.8867L25.729 18.7002V19.7916C25.729 20.4475 26.2607 20.9791 26.9165 20.9791C27.5723 20.9791 28.104 20.4475 28.104 19.7916V15.8333C28.104 15.1775 27.5723 14.6458 26.9165 14.6458H22.9582C22.3023 14.6458 21.7707 15.1775 21.7707 15.8333Z" fill="currentColor" />

    </symbol>
    <symbol id="message-love" width="100%" height="100%" viewBox="0 0 38 38" fill="none">
      <path fill-rule="evenodd" clip-rule="evenodd" d="M34.8332 19C34.8332 27.7445 27.7443 34.8333 18.9998 34.8333C16.467 34.8333 14.0731 34.2386 11.9501 33.1811C11.3859 32.9001 10.7411 32.8066 10.1322 32.9695L6.60764 33.9126C5.07761 34.3219 3.67785 32.9222 4.08723 31.3922L5.03027 27.8676C5.19319 27.2587 5.09965 26.6139 4.81865 26.0497C3.76123 23.9267 3.1665 21.5328 3.1665 19C3.1665 10.2555 10.2553 3.16663 18.9998 3.16663C27.7443 3.16663 34.8332 10.2555 34.8332 19ZM11.8748 17.5883C11.8748 19.7549 13.963 22.0282 15.8784 23.6577C17.1829 24.7674 17.8351 25.3223 18.9998 25.3223C20.1646 25.3223 20.8168 24.7674 22.1213 23.6577C24.0367 22.0282 26.1248 19.755 26.1248 17.5883C26.1248 13.3494 22.206 11.7668 18.9998 15.0413C15.7937 11.7668 11.8748 13.3494 11.8748 17.5883Z" fill="currentColor" />

    </symbol>
    <symbol id="danger" width="100%" height="100%" viewBox="0 0 38 38" fill="none">
      <path fill-rule="evenodd" clip-rule="evenodd" d="M19.0003 3.16667C11.5364 3.16667 7.80447 3.16667 5.48573 5.4854C3.16699 7.80414 3.16699 11.5361 3.16699 19C3.16699 26.4639 3.16699 30.1959 5.48573 32.5146C7.80447 34.8333 11.5364 34.8333 19.0003 34.8333C26.4642 34.8333 30.1962 34.8333 32.5149 32.5146C34.8337 30.1959 34.8337 26.4639 34.8337 19C34.8337 11.5361 34.8337 7.80414 32.5149 5.4854C30.1962 3.16667 26.4642 3.16667 19.0003 3.16667ZM19.0003 9.89583C19.6562 9.89583 20.1878 10.4275 20.1878 11.0833V20.5833C20.1878 21.2392 19.6562 21.7708 19.0003 21.7708C18.3445 21.7708 17.8128 21.2392 17.8128 20.5833V11.0833C17.8128 10.4275 18.3445 9.89583 19.0003 9.89583ZM19.0003 26.9167C19.8748 26.9167 20.5837 26.2078 20.5837 25.3333C20.5837 24.4589 19.8748 23.75 19.0003 23.75C18.1259 23.75 17.417 24.4589 17.417 25.3333C17.417 26.2078 18.1259 26.9167 19.0003 26.9167Z" fill="currentColor" />

    </symbol>
    <symbol id="doc" width="100%" height="100%" viewBox="0 0 38 38" fill="none">
      <path fill-rule="evenodd" clip-rule="evenodd" d="M22.167 34.8333H15.8337C9.86253 34.8333 6.87697 34.8333 5.02198 32.9783C3.16699 31.1234 3.16699 28.1378 3.16699 22.1667V15.8333C3.16699 9.86221 3.16699 6.87664 5.02198 5.02165C6.87697 3.16666 9.87826 3.16666 15.8808 3.16666C16.8403 3.16666 17.6092 3.16666 18.2562 3.19304C18.2349 3.3196 18.2237 3.4487 18.2233 3.57923L18.2087 8.06703C18.2085 9.80411 18.2084 11.3393 18.3748 12.5767C18.5551 13.9179 18.9691 15.259 20.0637 16.3535C21.1582 17.448 22.4992 17.8621 23.8405 18.0424C25.0779 18.2088 26.6131 18.2086 28.3501 18.2085L28.5003 18.2085H34.7662C34.8337 19.0544 34.8337 20.0926 34.8337 21.4746V22.1667C34.8337 28.1378 34.8337 31.1234 32.9787 32.9783C31.1237 34.8333 28.1381 34.8333 22.167 34.8333ZM8.31283 22.9583C8.31283 22.3025 8.84449 21.7708 9.50033 21.7708H22.167C22.8228 21.7708 23.3545 22.3025 23.3545 22.9583C23.3545 23.6142 22.8228 24.1458 22.167 24.1458H9.50033C8.84449 24.1458 8.31283 23.6142 8.31283 22.9583ZM8.31283 28.5C8.31283 27.8442 8.84449 27.3125 9.50033 27.3125H18.2087C18.8645 27.3125 19.3962 27.8442 19.3962 28.5C19.3962 29.1558 18.8645 29.6875 18.2087 29.6875H9.50033C8.84449 29.6875 8.31283 29.1558 8.31283 28.5Z" fill="currentColor" />
      <path d="M30.6405 12.0597L24.3725 6.41844C22.5867 4.81124 21.6938 4.00764 20.5983 3.58724L20.5837 7.91683C20.5837 11.6488 20.5837 13.5148 21.743 14.6741C22.9024 15.8335 24.7684 15.8335 28.5003 15.8335H34.1688C33.5947 14.7185 32.5669 13.7934 30.6405 12.0597Z" fill="currentColor" />

    </symbol>
    <!--  -->
    <!--  -->
    <!--  -->
  </defs>
</svg>