<svg width="33" height="32" viewBox="0 0 33 32" fill="none" xmlns="http://www.w3.org/2000/svg">
<path d="M16.2008 30H17.3675C23.7142 30 26.8758 30 28.8358 28.04C30.7842 26.08 30.7842 22.9067 30.7842 16.5833V15.3933C30.7842 9.09333 30.7842 5.92 28.8358 3.96C26.8758 2 23.7025 2 17.3675 2H16.2008C9.85418 2 6.69251 2 4.73251 3.96C2.78418 5.92 2.78418 9.09333 2.78418 15.4167V16.6067C2.78418 22.9067 2.78418 26.08 4.74418 28.04C6.70418 30 9.87751 30 16.2008 30Z" fill="#0077FF"/>
<path d="M17.5881 22C11.4381 22 7.93034 17.8709 7.78418 11H10.8648C10.9659 16.043 13.237 18.1792 15.0359 18.6196V11H17.9366V15.3493C19.713 15.1622 21.5793 13.1802 22.2089 11H25.1096C24.8724 12.1307 24.3994 13.2013 23.7204 14.1448C23.0414 15.0883 22.1709 15.8845 21.1633 16.4835C22.288 17.0308 23.2813 17.8055 24.0779 18.7564C24.8744 19.7073 25.4559 20.8128 25.7842 22H22.5912C22.2965 20.9688 21.6977 20.0458 20.8697 19.3465C20.0417 18.6472 19.0214 18.2029 17.9366 18.0691V22H17.5881Z" fill="white"/>
</svg>
