<svg width="41" height="40" viewBox="0 0 41 40" fill="none" xmlns="http://www.w3.org/2000/svg">
<rect x="3" y="2" width="35" height="35" rx="10" fill="url(#paint0_linear_501_1309)"/>
<path fill-rule="evenodd" clip-rule="evenodd" d="M21.0662 31.4286C27.7725 31.4286 33.2091 25.9921 33.2091 19.2857C33.2091 12.5794 27.7725 7.14288 21.0662 7.14288C14.3599 7.14288 8.92334 12.5794 8.92334 19.2857C8.92334 21.4635 9.49665 23.5074 10.5006 25.2747L8.92334 31.4286L15.2679 29.9574C16.9909 30.8956 18.9663 31.4286 21.0662 31.4286ZM21.0662 29.5605C26.7408 29.5605 31.3409 24.9603 31.3409 19.2857C31.3409 13.6112 26.7408 9.01102 21.0662 9.01102C15.3916 9.01102 10.7915 13.6112 10.7915 19.2857C10.7915 21.4767 11.4772 23.5075 12.6459 25.1752L11.7255 28.6264L15.2376 27.7484C16.8937 28.8912 18.9018 29.5605 21.0662 29.5605Z" fill="white"/>
<path d="M17.9046 13.4414C17.6122 12.8018 17.1636 12.8584 16.7104 12.8584C15.9005 12.8584 14.6377 13.9148 14.6377 15.8808C14.6377 17.4921 15.2897 19.2559 17.4868 21.8944C19.6071 24.4408 22.3932 25.758 24.7061 25.7132C27.019 25.6683 27.4948 23.5009 27.4948 22.769C27.4948 22.4446 27.31 22.2827 27.1826 22.2387C26.3944 21.8268 24.9407 21.0593 24.61 20.9151C24.2792 20.7709 24.1065 20.9659 23.9992 21.0721C23.6992 21.3833 23.1046 22.3007 22.901 22.507C22.6975 22.7133 22.3939 22.6089 22.2676 22.5309C21.8029 22.3278 20.5426 21.7174 19.5381 20.657C18.2958 19.3456 18.2229 18.8944 17.9888 18.4928C17.8016 18.1715 17.939 17.9744 18.0076 17.8882C18.2752 17.5519 18.6448 17.0327 18.8106 16.7746C18.9763 16.5166 18.8447 16.1249 18.7658 15.8809C18.4262 14.8315 18.1385 13.953 17.9046 13.4414Z" fill="white"/>
<defs>
<linearGradient id="paint0_linear_501_1309" x1="35.8125" y1="6.375" x2="3" y2="37" gradientUnits="userSpaceOnUse">
<stop stop-color="#5BD066"/>
<stop offset="1" stop-color="#27B43E"/>
</linearGradient>
</defs>
</svg>
