<svg width="33" height="32" viewBox="0 0 33 32" fill="none" xmlns="http://www.w3.org/2000/svg">
<path d="M1.27944 8.72933C1.42633 6.3548 3.24451 4.49388 5.50796 4.37614C8.78558 4.20563 13.4703 4 17 4C20.5297 4 25.2144 4.20563 28.492 4.37614C30.7555 4.49388 32.5737 6.3548 32.7206 8.72933C32.8613 11.0043 33 13.8036 33 16C33 18.1964 32.8613 20.9957 32.7206 23.2707C32.5737 25.6452 30.7555 27.5061 28.492 27.6239C25.2144 27.7944 20.5297 28 17 28C13.4703 28 8.78558 27.7944 5.50796 27.6239C3.24451 27.5061 1.42633 25.6452 1.27944 23.2707C1.1387 20.9957 1 18.1964 1 16C1 13.8036 1.1387 11.0043 1.27944 8.72933Z" fill="#FC0D1B"/>
<path d="M13 11V21L23 16L13 11Z" fill="white"/>
</svg>
